HIERARCHY
ROOT root
{
	OFFSET 0.000000 0.000000 0.000000
	CHANNELS 6 Xposition Yposition Zposition Zrotation Yrotation Xrotation
	JOINT lhip
	{
		OFFSET 0.058581 -0.082280 -0.017664
		CHANNELS 3 Zrotation Yrotation Xrotation
		JOINT lknee
		{
			OFFSET 0.043451 -0.386469 0.008037
			CHANNELS 3 Zrotation Yrotation Xrotation
			JOINT lankle
			{
				OFFSET -0.014790 -0.426874 -0.037428
				CHANNELS 3 Zrotation Yrotation Xrotation
				JOINT ltoe
				{
					OFFSET 0.041054 -0.060286 0.122042
					CHANNELS 3 Zrotation Yrotation Xrotation
					End Site
					{
						OFFSET 0.000000 0.000000 0.000000
					}
				}
			}
		}
	}
	JOINT rhip
	{
		OFFSET -0.060310 -0.090513 -0.013543
		CHANNELS 3 Zrotation Yrotation Xrotation
		JOINT rknee
		{
			OFFSET -0.043257 -0.383688 -0.004843
			CHANNELS 3 Zrotation Yrotation Xrotation
			JOINT rankle
			{
				OFFSET 0.019056 -0.420046 -0.034562
				CHANNELS 3 Zrotation Yrotation Xrotation
				JOINT rtoe
				{
					OFFSET -0.034840 -0.062106 0.130323
					CHANNELS 3 Zrotation Yrotation Xrotation
					End Site
					{
						OFFSET 0.000000 0.000000 0.000000
					}
				}
			}
		}
	}
	JOINT lowerback
	{
		OFFSET 0.004439 0.124404 -0.038385
		CHANNELS 3 Zrotation Yrotation Xrotation
		JOINT upperback
		{
			OFFSET 0.004488 0.137956 0.026820
			CHANNELS 3 Zrotation Yrotation Xrotation
			JOINT chest
			{
				OFFSET -0.002265 0.056032 0.002855
				CHANNELS 3 Zrotation Yrotation Xrotation
				JOINT lowerneck
				{
					OFFSET -0.013390 0.211636 -0.033468
					CHANNELS 3 Zrotation Yrotation Xrotation
					JOINT upperneck
					{
						OFFSET 0.010113 0.088937 0.050410
						CHANNELS 3 Zrotation Yrotation Xrotation
						End Site
						{
							OFFSET 0.000000 0.000000 0.000000
						}
					}
				}
				JOINT lclavicle
				{
					OFFSET 0.071702 0.114000 -0.018898
					CHANNELS 3 Zrotation Yrotation Xrotation
					JOINT lshoulder
					{
						OFFSET 0.122921 0.045205 -0.019046
						CHANNELS 3 Zrotation Yrotation Xrotation
						JOINT lelbow
						{
							OFFSET 0.255332 -0.015649 -0.022946
							CHANNELS 3 Zrotation Yrotation Xrotation
							JOINT lwrist
							{
								OFFSET 0.265709 0.012698 -0.007375
								CHANNELS 3 Zrotation Yrotation Xrotation
								End Site
								{
									OFFSET 0.000000 0.000000 0.000000
								}
							}
						}
					}
				}
				JOINT rclavicle
				{
					OFFSET -0.082954 0.112472 -0.023707
					CHANNELS 3 Zrotation Yrotation Xrotation
					JOINT rshoulder
					{
						OFFSET -0.113228 0.046853 -0.008472
						CHANNELS 3 Zrotation Yrotation Xrotation
						JOINT relbow
						{
							OFFSET -0.260127 -0.014369 -0.031269
							CHANNELS 3 Zrotation Yrotation Xrotation
							JOINT rwrist
							{
								OFFSET -0.269108 0.006794 -0.006027
								CHANNELS 3 Zrotation Yrotation Xrotation
								End Site
								{
									OFFSET 0.000000 0.000000 0.000000
								}
							}
						}
					}
				}
			}
		}
	}
}
MOTION
Frames: 14
Frame Time: 0.033333
-0.168148 1.830582 1.006814 5.105312 -3.112340 83.551751 1.083836 0.571243 6.186730 -1.357638 -8.781111 3.882906 0.761461 8.583227 -12.298207 0.000000 -0.000000 0.000000 -4.949185 -4.188042 9.021260 -1.377042 0.531142 -2.389585 3.673337 -7.916234 -12.050196 0.000000 -0.000000 0.000000 -4.033606 4.575238 4.387204 -2.352583 -2.321255 14.455696 -1.773926 0.046593 -2.244157 3.851041 5.865387 -1.165142 6.621645 1.747760 5.423907 -32.137526 -7.784132 4.500866 -43.510893 -9.846799 5.499181 7.647807 -19.981777 -6.697861 -0.830367 -1.453523 -2.276782 33.300909 12.764054 11.672789 52.704626 11.263584 11.979302 -9.027262 19.847455 -10.667970 2.764835 3.004883 -7.038161 
-0.167724 1.830096 1.006636 5.389068 -3.139226 83.696828 0.882058 0.299452 5.593369 -1.416278 -8.960241 4.649516 0.932763 8.767551 -12.535857 0.000000 -0.000000 0.000000 -4.923476 -4.112712 8.790088 -1.451192 0.509607 -2.106534 3.790895 -8.241779 -12.464319 0.000000 -0.000000 0.000000 -4.146418 4.644538 4.583452 -2.507148 -2.333619 14.132707 -1.783751 0.111793 -1.983852 3.821172 5.953156 -1.152185 6.601407 1.845992 5.380577 -31.589288 -8.001328 4.557118 -43.609993 -9.775847 5.641643 7.741543 -19.903652 -6.494135 -0.533819 -1.257609 -2.496309 33.032220 12.891727 11.512656 53.172933 11.098032 12.169936 -9.310705 20.196524 -10.367596 2.309204 2.820911 -7.267887 
-0.166229 1.829054 1.006614 5.629200 -3.124265 83.808584 0.600682 -0.038361 5.187601 -1.383451 -9.151896 5.263470 1.166323 9.021000 -12.891751 0.000000 -0.000000 0.000000 -4.901553 -4.091749 8.623468 -1.552768 0.711917 -1.824312 3.796581 -8.714619 -12.634061 0.000000 -0.000000 0.000000 -4.191352 4.733468 4.925798 -2.487616 -2.283214 13.689792 -1.775123 0.058736 -1.158662 3.551840 5.583852 -2.945610 5.028900 2.178143 5.460654 -31.607569 -7.810771 3.953237 -43.027597 -9.721014 6.201579 7.260814 -20.123969 -5.503177 -0.872718 -1.600528 -2.117334 33.048944 12.781739 10.771873 52.953430 11.107495 12.611598 -9.357365 20.288069 -10.252436 2.850396 2.931106 -7.087052 
-0.163026 1.827128 1.006383 5.923134 -3.056448 84.053719 0.235399 -0.512863 4.480960 -1.458168 -9.352032 6.294977 1.525522 9.373298 -13.476121 0.000000 -0.000000 0.000000 -4.901475 -4.033292 8.339458 -1.666175 0.875384 -1.441893 3.821803 -9.240521 -12.979569 0.000000 -0.000000 0.000000 -4.272844 4.891863 5.194939 -2.514173 -2.236064 13.408157 -1.783048 0.113590 -0.449137 3.324428 5.304466 -4.305232 3.940144 2.276347 5.371960 -31.189644 -7.677048 3.600456 -42.727264 -9.461091 6.779528 6.806038 -20.561837 -4.479373 -1.395490 -1.971971 -1.808636 32.920381 12.891692 10.232490 52.830637 11.236404 12.887244 -9.281436 20.272800 -10.210389 3.522947 3.206618 -7.273369 
-0.161588 1.826315 1.006235 6.013086 -3.025194 84.163052 0.112768 -0.668843 4.213524 -1.512339 -9.418389 6.681608 1.677120 9.479600 -13.712223 0.000000 -0.000000 0.000000 -4.923057 -4.011061 8.240955 -1.699383 0.865855 -1.332290 3.852181 -9.342671 -13.106707 0.000000 -0.000000 0.000000 -4.320291 4.965596 5.196529 -2.536494 -2.227828 13.460049 -1.790848 0.174346 -0.448634 3.305473 5.320919 -4.254826 4.066400 2.156730 5.286713 -30.899444 -7.683742 3.685851 -42.832758 -9.316786 6.870712 6.736301 -20.686990 -4.301146 -1.544304 -2.029812 -1.779417 32.822195 12.991301 10.253565 52.876113 11.284042 12.841417 -9.221644 20.249631 -10.225606 3.647581 3.329621 -7.458336 
-0.157882 1.824284 1.005764 6.162135 -2.898803 84.425566 -0.138027 -1.003473 3.650554 -1.597862 -9.564968 7.457253 1.954779 9.688247 -14.141588 0.000000 -0.000000 0.000000 -4.923646 -3.986968 8.032880 -1.799769 0.781763 -1.170135 3.880795 -9.456862 -13.367536 0.000000 -0.000000 0.000000 -4.298252 5.129081 5.156661 -2.603456 -2.207816 13.597409 -1.842062 0.345424 -0.618113 3.285818 5.380390 -3.723889 4.682586 1.759749 5.053419 -30.282456 -7.715329 3.988062 -43.247812 -8.916469 7.015714 6.742650 -20.880295 -4.142855 -1.713141 -2.111136 -1.849213 32.582976 13.199429 10.439351 52.994256 11.304687 12.638539 -9.101864 20.275912 -10.245580 3.725798 3.640766 -7.879754 
-0.153331 1.821801 1.005304 6.296887 -2.775531 84.733048 -0.450647 -1.363570 3.076740 -1.710090 -9.744609 8.312397 2.285174 9.951970 -14.674258 0.000000 -0.000000 0.000000 -4.996199 -3.966476 7.865561 -1.914390 0.696299 -1.087188 3.918332 -9.561489 -13.526035 0.000000 -0.000000 0.000000 -4.303481 5.353110 5.069307 -2.645988 -2.150394 13.780752 -1.919929 0.528634 -0.884592 3.350619 5.297432 -3.222872 5.400902 1.242667 4.985773 -29.842555 -7.679458 4.300350 -43.551426 -8.448165 7.202332 6.652188 -20.922843 -4.058410 -1.824107 -2.263044 -1.890135 32.476581 13.316933 10.588359 53.024606 11.236614 12.468112 -8.969980 20.380719 -10.289876 3.746553 4.010623 -8.192713 
-0.147865 1.818676 1.004758 6.426152 -2.647925 85.079525 -0.818188 -1.743427 2.531509 -1.819575 -9.898800 9.182126 2.632510 10.268347 -15.243995 0.000000 -0.000000 0.000000 -5.125882 -3.929381 7.776358 -2.042467 0.625215 -1.103840 3.967061 -9.695760 -13.587105 0.000000 -0.000000 0.000000 -4.298597 5.616749 4.922060 -2.703982 -2.049606 13.923652 -2.068637 0.750260 -1.168231 3.479214 5.090855 -2.801626 6.245523 0.557107 5.147162 -29.501072 -7.562448 4.611238 -43.706009 -7.930724 7.516033 6.272863 -20.880418 -3.640301 -1.961836 -2.482726 -1.755608 32.448273 13.358473 10.682631 53.046236 11.087610 12.399915 -8.722705 20.497771 -10.209765 3.665790 4.437078 -8.486478 
-0.141431 1.814835 1.004140 6.582450 -2.517448 85.445188 -1.241657 -2.156131 2.052492 -1.901624 -10.009599 10.022802 2.990244 10.606532 -15.826058 0.000000 -0.000000 0.000000 -5.315151 -3.888602 7.768300 -2.174711 0.619757 -1.156646 4.023137 -9.909709 -13.593369 0.000000 -0.000000 0.000000 -4.268328 5.896522 4.736899 -2.790900 -1.910698 13.951722 -2.312037 1.006326 -1.387397 3.718152 4.553684 -2.429282 7.101571 -0.346559 5.601508 -29.291494 -7.335740 4.824723 -43.619449 -7.416554 8.071262 5.516638 -20.755587 -2.590800 -2.169185 -2.639219 -1.252380 32.466553 13.347733 10.707690 53.068132 10.893029 12.564797 -8.249500 20.590252 -9.810201 3.452996 4.781613 -8.670165 
-0.133931 1.810263 1.003420 6.841971 -2.384673 85.773032 -1.718334 -2.537494 1.751235 -1.950571 -10.203656 10.708240 3.331615 10.899652 -16.404827 0.000000 -0.000000 0.000000 -5.551149 -3.854194 7.809023 -2.315556 0.678575 -1.052600 4.055722 -10.244481 -13.651855 0.000000 -0.000000 0.000000 -4.221778 6.136971 4.559494 -2.890528 -1.756000 13.915083 -2.607046 1.282624 -1.524530 4.072801 3.631669 -2.076245 7.759253 -1.304537 6.168108 -29.261920 -7.060947 4.925916 -43.343162 -6.955181 8.783941 4.579094 -20.541328 -1.100295 -2.491717 -2.633491 -0.404271 32.486750 13.335312 10.685341 53.065785 10.719393 12.952735 -7.631695 20.743240 -9.002855 3.177626 4.727392 -8.494251 
-0.125316 1.804945 1.002568 7.304049 -2.252564 86.007522 -2.235217 -2.792439 1.750621 -1.961838 -10.640378 11.093777 3.691912 11.108033 -16.963095 0.000000 -0.000000 0.000000 -5.814328 -3.819199 7.773529 -2.462008 0.703374 -0.415907 3.999557 -10.699083 -13.923019 0.000000 -0.000000 0.000000 -4.192887 6.301812 4.406587 -2.946119 -1.603570 13.969925 -2.867175 1.514667 -1.614865 4.424630 2.611427 -1.838897 8.110057 -2.067018 6.570225 -29.414472 -6.808147 4.915040 -43.079704 -6.614259 9.370467 3.790805 -20.169795 0.234492 -3.071741 -2.495864 0.597799 32.485233 13.335238 10.557189 52.996413 10.544624 13.359449 -7.160928 20.978084 -8.064253 3.201999 4.423367 -7.863888 
-0.115724 1.798810 1.001538 7.995726 -2.134253 86.152176 -2.761943 -2.931359 2.056093 -1.980887 -11.294581 11.191205 4.090333 11.241927 -17.468798 0.000000 -0.000000 0.000000 -6.095027 -3.777228 7.360036 -2.595624 0.588223 1.327000 3.768408 -11.216304 -14.547206 0.000000 -0.000000 0.000000 -4.203397 6.344454 4.305069 -2.913351 -1.468990 14.079018 -3.052586 1.630465 -1.673628 4.654282 1.780840 -1.708733 8.230445 -2.632590 6.789290 -29.663130 -6.579117 4.756428 -43.068357 -6.369935 9.660882 3.377774 -19.480696 0.855422 -3.779300 -2.296924 1.452702 32.493352 13.342989 10.339367 52.860309 10.304787 13.608530 -7.065283 21.200148 -7.370666 3.600100 4.356234 -6.913912 
-0.105528 1.791959 1.000290 8.842639 -2.038700 86.218906 -3.282796 -3.015137 2.587690 -2.068221 -12.100358 11.160473 4.540630 11.403634 -17.934496 0.000000 -0.000000 0.000000 -6.351384 -3.698850 6.155735 -2.722966 0.290915 4.894499 3.252772 -11.877924 -15.644807 0.000000 -0.000000 0.000000 -4.276893 6.227592 4.356343 -2.775831 -1.335811 14.092361 -3.165286 1.632660 -1.706833 4.731610 1.178960 -1.688536 8.208913 -3.084101 6.986530 -29.897867 -6.428953 4.465075 -43.427230 -6.156130 9.715604 3.417212 -18.412735 0.459280 -4.328688 -2.056240 1.883027 32.513349 13.395622 10.086570 52.748424 9.898386 13.727398 -7.422479 21.534260 -7.170250 4.154268 4.741817 -6.139827 
-0.095173 1.784534 0.998757 9.742049 -1.992860 86.130438 -3.824927 -3.039754 3.379849 -2.242283 -13.047504 11.092534 5.035267 11.663895 -18.395906 0.000000 -0.000000 0.000000 -6.527300 -3.562751 4.038187 -2.932784 -0.252314 10.557562 2.474770 -12.843761 -16.976833 0.000000 -0.000000 0.000000 -4.426794 5.919262 4.689653 -2.601954 -1.170620 13.958690 -3.231820 1.577274 -1.684895 4.754884 0.866722 -1.783155 8.110144 -3.326290 7.155634 -29.997922 -6.464545 4.205759 -44.076269 -6.030498 9.585388 3.759848 -17.163644 -0.829776 -4.508092 -1.670099 1.625950 32.479811 13.528995 9.851608 52.813430 9.404863 13.824791 -8.083820 22.105305 -7.517067 4.453711 5.043586 -6.257154 
